<svg width="32" height="32" viewBox="0 0 24 24" fill="none" xmlns="http://www.w3.org/2000/svg">
<path d="M6.5 20C6.5 20.8284 7.17157 21.5 8 21.5H16C16.8284 21.5 17.5 20.8284 17.5 20V18.5H6.5V20Z" fill="#ed7611"/>
<path d="M12 2C9.79086 2 8 3.79086 8 6C8 6.35429 8.04736 6.69798 8.13603 7.02539C6.88738 7.36806 6 8.56455 6 10V16.5H18V10C18 8.56455 17.1126 7.36806 15.864 7.02539C15.9526 6.69798 16 6.35429 16 6C16 3.79086 14.2091 2 12 2Z" fill="#ed7611"/>
<circle cx="12" cy="5" r="1" fill="white"/>
<circle cx="9" cy="6.5" r="0.5" fill="white"/>
<circle cx="15" cy="6.5" r="0.5" fill="white"/>
<circle cx="12" cy="8" r="0.5" fill="white"/>
</svg>